<mxfile host="Electron" modified="2023-12-09T08:57:31.728Z" agent="Mozilla/5.0 (Windows NT 10.0; Win64; x64) AppleWebKit/537.36 (KHTML, like Gecko) draw.io/21.2.8 Chrome/112.0.5615.165 Electron/24.2.0 Safari/537.36" etag="qnkiMaG1SuiXezelODdT" version="21.2.8" type="device">
  <diagram name="第 1 页" id="vFgxB-Bc-RUPfEj-NbT0">
    <mxGraphModel dx="1036" dy="542" grid="1" gridSize="10" guides="1" tooltips="1" connect="1" arrows="1" fold="1" page="1" pageScale="1" pageWidth="827" pageHeight="1169" math="0" shadow="0">
      <root>
        <mxCell id="0" />
        <mxCell id="1" parent="0" />
        <mxCell id="3qpzCBQo70lfSDXlQjpj-1" value="项目成员" style="shape=umlActor;verticalLabelPosition=bottom;verticalAlign=top;html=1;outlineConnect=0;" vertex="1" parent="1">
          <mxGeometry x="100" y="230" width="30" height="60" as="geometry" />
        </mxCell>
        <mxCell id="3qpzCBQo70lfSDXlQjpj-2" value="讨论组管理" style="ellipse;whiteSpace=wrap;html=1;" vertex="1" parent="1">
          <mxGeometry x="240" y="110" width="120" height="80" as="geometry" />
        </mxCell>
        <mxCell id="3qpzCBQo70lfSDXlQjpj-3" value="文件管理" style="ellipse;whiteSpace=wrap;html=1;" vertex="1" parent="1">
          <mxGeometry x="240" y="260" width="120" height="80" as="geometry" />
        </mxCell>
        <mxCell id="3qpzCBQo70lfSDXlQjpj-4" value="聊天" style="ellipse;whiteSpace=wrap;html=1;" vertex="1" parent="1">
          <mxGeometry x="240" y="420" width="120" height="80" as="geometry" />
        </mxCell>
        <mxCell id="3qpzCBQo70lfSDXlQjpj-5" value="" style="endArrow=classic;html=1;rounded=0;" edge="1" parent="1" source="3qpzCBQo70lfSDXlQjpj-1" target="3qpzCBQo70lfSDXlQjpj-4">
          <mxGeometry width="50" height="50" relative="1" as="geometry">
            <mxPoint x="390" y="370" as="sourcePoint" />
            <mxPoint x="440" y="320" as="targetPoint" />
          </mxGeometry>
        </mxCell>
        <mxCell id="3qpzCBQo70lfSDXlQjpj-6" value="" style="endArrow=classic;html=1;rounded=0;exitX=0.5;exitY=0.5;exitDx=0;exitDy=0;exitPerimeter=0;" edge="1" parent="1" source="3qpzCBQo70lfSDXlQjpj-1" target="3qpzCBQo70lfSDXlQjpj-3">
          <mxGeometry width="50" height="50" relative="1" as="geometry">
            <mxPoint x="390" y="370" as="sourcePoint" />
            <mxPoint x="440" y="320" as="targetPoint" />
          </mxGeometry>
        </mxCell>
        <mxCell id="3qpzCBQo70lfSDXlQjpj-7" value="" style="endArrow=classic;html=1;rounded=0;" edge="1" parent="1" source="3qpzCBQo70lfSDXlQjpj-1" target="3qpzCBQo70lfSDXlQjpj-2">
          <mxGeometry width="50" height="50" relative="1" as="geometry">
            <mxPoint x="110" y="240" as="sourcePoint" />
            <mxPoint x="160" y="190" as="targetPoint" />
          </mxGeometry>
        </mxCell>
        <mxCell id="3qpzCBQo70lfSDXlQjpj-8" value="话题讨论" style="ellipse;whiteSpace=wrap;html=1;" vertex="1" parent="1">
          <mxGeometry x="450" y="425" width="100" height="70" as="geometry" />
        </mxCell>
        <mxCell id="3qpzCBQo70lfSDXlQjpj-11" value="&amp;lt;&amp;lt;extend&amp;gt;&amp;gt;" style="html=1;verticalAlign=bottom;labelBackgroundColor=none;endArrow=open;endFill=0;dashed=1;rounded=0;" edge="1" parent="1" source="3qpzCBQo70lfSDXlQjpj-8" target="3qpzCBQo70lfSDXlQjpj-4">
          <mxGeometry width="160" relative="1" as="geometry">
            <mxPoint x="330" y="320" as="sourcePoint" />
            <mxPoint x="490" y="320" as="targetPoint" />
          </mxGeometry>
        </mxCell>
      </root>
    </mxGraphModel>
  </diagram>
</mxfile>
